HIERARCHY
ROOT SpineBase
{
  OFFSET 0.000000 0.000000 0.000000
  CHANNELS 6 Xposition Yposition Zposition Zrotation Xrotation Yrotation
  JOINT SpineMid
  {
    OFFSET 0.000000 28.133752 0.000000
    CHANNELS 3 Zrotation Xrotation Yrotation
    JOINT SpineShoulder
    {
      OFFSET -0.059455 21.038735 -0.822602
      CHANNELS 3 Zrotation Xrotation Yrotation
      JOINT Neck
      {
        OFFSET -0.028221 7.002378 -0.560366
        CHANNELS 3 Zrotation Xrotation Yrotation
        JOINT Head
        {
          OFFSET -1.563582 12.514979 -0.809166
          CHANNELS 3 Zrotation Xrotation Yrotation
          End Site
          {
            OFFSET 0 0 0
          }
        }
      }
      JOINT ShoulderLeft
      {
        OFFSET -16.222703 -1.135368 3.808630
        CHANNELS 3 Zrotation Xrotation Yrotation
        JOINT ElbowLeft
        {
          OFFSET -3.345108 -21.778226 1.286127
          CHANNELS 3 Zrotation Xrotation Yrotation
          JOINT WristLeft
          {
            OFFSET 3.057150 -12.236829 -18.754426
            CHANNELS 3 Zrotation Xrotation Yrotation
            JOINT HandLeft
            {
              OFFSET 1.435228 -1.162972 -2.199543
              CHANNELS 3 Zrotation Xrotation Yrotation
              JOINT HandTipLeft
              {
                OFFSET 1.389613 -1.479636 -4.717712
                CHANNELS 3 Zrotation Xrotation Yrotation
                End Site
                {
                  OFFSET 0 0 0
                }
              }
              JOINT ThumbLeft
              {
                OFFSET 3.186256 -0.991427 0.508338
                CHANNELS 3 Zrotation Xrotation Yrotation
                End Site
                {
                  OFFSET 0 0 0
                }
              }
            }
          }
        }
      }
      JOINT ShoulderRight
      {
        OFFSET 15.619543 -0.603837 -3.548407
        CHANNELS 3 Zrotation Xrotation Yrotation
        JOINT ElbowRight
        {
          OFFSET 7.427482 -20.684986 -1.225953
          CHANNELS 3 Zrotation Xrotation Yrotation
          JOINT WristRight
          {
            OFFSET -9.151738 -10.921018 -13.615109
            CHANNELS 3 Zrotation Xrotation Yrotation
            JOINT HandRight
            {
              OFFSET -7.358033 -2.818152 -5.086163
              CHANNELS 3 Zrotation Xrotation Yrotation
              JOINT HandTipRight
              {
                OFFSET -3.494970 -2.647007 -4.259347
                CHANNELS 3 Zrotation Xrotation Yrotation
                End Site
                {
                  OFFSET 0 0 0
                }
              }
              JOINT ThumbRight
              {
                OFFSET -4.368053 -1.630383 -0.095016
                CHANNELS 3 Zrotation Xrotation Yrotation
                End Site
                {
                  OFFSET 0 0 0
                }
              }
            }
          }
        }
      }
    }
  }
  JOINT HipLeft
  {
    OFFSET -7.242204 0.370317 -2.199696
    CHANNELS 3 Zrotation Xrotation Yrotation
    JOINT KneeLeft
    {
      OFFSET -6.546464 -31.083611 2.426153
      CHANNELS 3 Zrotation Xrotation Yrotation
      JOINT AnkleLeft
      {
        OFFSET -1.469743 -35.485084 6.156741
        CHANNELS 3 Zrotation Xrotation Yrotation
        JOINT FootLeft
        {
          OFFSET -2.043666 -3.392185 -12.868264
          CHANNELS 3 Zrotation Xrotation Yrotation
          End Site
          {
            OFFSET 0 0 0
          }
        }
      }
    }
  }
  JOINT HipRight
  {
    OFFSET 6.813387 1.099740 -4.628687
    CHANNELS 3 Zrotation Xrotation Yrotation
    JOINT KneeRight
    {
      OFFSET 4.982541 -30.068214 2.501332
      CHANNELS 3 Zrotation Xrotation Yrotation
      JOINT AnkleRight
      {
        OFFSET 2.948054 -36.599169 8.123864
        CHANNELS 3 Zrotation Xrotation Yrotation
        JOINT FootRight
        {
          OFFSET -1.952697 -5.652360 -8.639416
          CHANNELS 3 Zrotation Xrotation Yrotation
          End Site
          {
            OFFSET 0 0 0
          }
        }
      }
    }
  }
}
MOTION
Frames: 5
Frame Time: 0.033333
26.033195 74.133444 365.023250 0.438194 2.418832 19.964328 0.226977 0.547210 -19.949673 0.080339 -0.097540 0.031337 -1.991785 -5.574536 -0.602052 0.000000 0.000000 0.000000 -61.866411 24.500199 4.341527 132.085951 43.386015 -63.768399 2.321658 -8.349845 25.265239 -21.362772 -8.748131 -13.498711 0.000000 0.000000 0.000000 0.000000 0.000000 0.000000 -24.341123 44.956250 29.987939 -69.068504 12.529747 11.566641 -11.059419 6.958737 -8.830361 29.389121 6.868773 2.276853 0.000000 0.000000 0.000000 0.000000 0.000000 0.000000 -2.019785 -3.229230 -19.786048 -2.465264 0.846434 -0.667793 5.924270 -18.943705 3.871950 0.000000 0.000000 0.000000 -3.448380 -1.248649 -20.248998 0.377682 -2.422406 -0.487621 -5.529123 18.890968 6.036519 0.000000 0.000000 0.000000
26.036990 74.122040 365.061577 0.443679 2.399790 19.938884 0.240007 0.610841 -19.924958 0.120445 -0.107054 0.035601 -1.883059 -5.187606 -0.529355 0.000000 0.000000 0.000000 -61.805425 24.215707 4.175567 132.635751 43.332970 -64.518448 2.683360 -10.037001 25.678992 -21.480702 -5.808768 -12.726036 0.000000 0.000000 0.000000 0.000000 0.000000 0.000000 -24.244285 44.847913 29.846743 -69.301609 12.014036 11.679041 -6.375222 13.579752 -11.595793 26.373016 3.795241 6.891238 0.000000 0.000000 0.000000 0.000000 0.000000 0.000000 -1.990804 -3.206405 -19.759714 -2.498867 0.861184 -0.669356 5.230908 -15.977810 4.331747 0.000000 0.000000 0.000000 -3.612179 -1.408694 -20.276349 0.594751 -1.967253 -0.388151 -5.671959 18.656832 6.029402 0.000000 0.000000 0.000000
26.048645 74.094099 365.092861 0.464788 2.385118 19.881575 0.239405 0.653969 -19.868381 0.153227 -0.120133 0.039493 -1.842238 -4.714974 -0.457350 0.000000 0.000000 0.000000 -61.891195 23.943239 4.053467 133.041968 43.056439 -64.993332 2.166295 -9.663805 25.733665 -20.511626 -6.588662 -13.671636 0.000000 0.000000 0.000000 0.000000 0.000000 0.000000 -24.465386 44.867690 29.960968 -69.774448 12.205817 12.059428 -7.676339 10.281405 -10.719573 23.098461 2.684561 7.141429 0.000000 0.000000 0.000000 0.000000 0.000000 0.000000 -1.962865 -3.188685 -19.700322 -2.542119 0.794583 -0.669760 5.279901 -16.217509 4.487847 0.000000 0.000000 0.000000 -3.872533 -1.706891 -20.307116 0.842907 -1.165504 -0.242175 -5.800191 18.246562 5.973595 0.000000 0.000000 0.000000
26.053718 74.082443 365.142929 0.488079 2.323005 19.879436 0.234374 0.681099 -19.866760 0.182743 -0.126044 0.042981 -1.732581 -3.981052 -0.348157 0.000000 0.000000 0.000000 -62.163151 23.775992 4.044633 133.477249 42.531465 -65.335671 1.516789 -10.248973 26.040442 -21.530525 -5.826317 -12.490858 0.000000 0.000000 0.000000 0.000000 0.000000 0.000000 -24.793032 45.026949 30.213878 -69.832571 11.959371 11.947922 -7.433348 10.197168 -10.744123 23.100577 2.870358 7.023590 0.000000 0.000000 0.000000 0.000000 0.000000 0.000000 -1.999993 -3.040639 -19.716389 -2.458781 0.673283 -0.650676 5.720676 -18.213646 4.381995 0.000000 0.000000 0.000000 -3.846588 -1.891700 -20.334646 0.772103 -0.460015 -0.156419 -5.845538 17.764910 5.922178 0.000000 0.000000 0.000000
26.054267 74.078627 365.197640 0.516216 2.229362 19.932507 0.219937 0.670965 -19.919814 0.202824 -0.129352 0.045559 -1.635455 -3.052007 -0.223626 0.000000 0.000000 0.000000 -62.527736 23.845718 4.200110 133.745604 41.942695 -65.380294 1.000215 -12.959529 26.883098 -23.192145 -1.380335 -9.592390 0.000000 0.000000 0.000000 0.000000 0.000000 0.000000 -25.368914 44.980423 30.458740 -69.752884 11.885297 12.189084 -6.073886 11.949986 -11.624753 20.749956 0.578870 9.053551 0.000000 0.000000 0.000000 0.000000 0.000000 0.000000 -2.074679 -2.824376 -19.795983 -2.263902 0.482101 -0.614268 4.634520 -14.076380 5.151657 0.000000 0.000000 0.000000 -3.699735 -1.982237 -20.386630 0.337442 0.098831 -0.157568 -5.617217 17.327596 5.912985 0.000000 0.000000 0.000000
